<?xml version="1.0" encoding="UTF-8"?><svg id="Capa_7" xmlns="http://www.w3.org/2000/svg" width="64" height="64" viewBox="0 0 64 64"><defs><style>.cls-1{fill:#fff;}</style></defs><path class="cls-1" d="M45.2096,38.7258c-.2383.3621-1.4204,1.6936-1.3529,1.9517l17.6297,17.5724c1.5751,1.9532-.7839,4.6142-2.8743,3.1478l-17.8041-17.6662c-.2435-.0636-1.9735,1.34-2.3763,1.5962-12.6325,8.0341-29.7277,2.5883-34.9239-11.4878C-2.5128,17.5307,10.3176,1.0639,27.4285,2.2384c17.9367,1.2312,27.6963,21.4165,17.7811,36.4874ZM8.7979,35.1021c7.1473,12.7346,25.8024,12.8958,33.3632.4354,7.3187-12.0614-.7661-27.9128-14.7333-29.0126C11.9511,5.3062,1.0701,21.333,8.7979,35.1021Z"/></svg>