<?xml version="1.0" encoding="UTF-8"?><svg id="Capa_3" xmlns="http://www.w3.org/2000/svg" width="64" height="64" viewBox="0 0 64 64"><defs><style>.cls-1{fill:#fff;}</style></defs><path class="cls-1" d="M16.8078,6.5247c4.0704-.3595,8.0896.7277,11.3329,3.2025,1.386,1.0576,2.4856,2.4422,3.7801,3.6052,1.8946-1.6688,3.4453-3.5247,5.7042-4.8059,15.5409-8.8146,31.3794,10.7504,20.0096,24.2682l-24.2807,24.3284c-.7225.72-1.9474.7372-2.7044.0654L6.3025,32.7948C-2.0195,23.159,4.141,7.6435,16.8078,6.5247ZM17.0702,10.7434c-9.229.9002-13.6564,12.3774-7.5416,19.3464l22.4877,22.4052,22.3283-22.3374c9.384-11.3332-5.6467-26.1766-16.8505-16.356-1.2927,1.1331-3.0739,3.5137-4.3473,4.347-.7485.4898-1.7032.4507-2.4295-.0587-1.3382-.9386-2.9305-3.1152-4.2742-4.2884-2.6865-2.3455-5.7856-3.4081-9.3729-3.0582Z"/></svg>