<?xml version="1.0" encoding="UTF-8"?><svg id="Capa_2" xmlns="http://www.w3.org/2000/svg" width="64" height="64" viewBox="0 0 64 64"><defs><style>.cls-1{fill:#fff;}</style></defs><path class="cls-1" d="M2.5,7.3878c.3654-.6853.7255-1.1397,1.5529-1.2704,3.3808.2359,7.1616-.3043,10.4938-.0018.9006.0817,1.3823.4392,1.7233,1.2727l1.2773,5.6526,42.3999-.0094c.8274.1307,1.1874.5851,1.5529,1.2704v.9219l-7.2099,24.6524c-.3702.4859-.8509.8081-1.4856.8191l-31.4665-.0075c-2.0943.3839-2.0356,3.0727.0002,3.4624l31.8002.0045c1.3195.2482,1.9028,1.8305,1.0399,2.8696-.1055.127-.8395.5804-.9176.5804h-3.2842l1.2976.3733c4.6834,1.7939,4.238,8.7344-.6958,9.8506-6.2358,1.4108-8.9395-7.4969-3.0518-9.8506l1.2976-.3733h-23.2773l1.2976.3733c4.6834,1.7939,4.238,8.7344-.6958,9.8506-6.2358,1.4108-8.9395-7.4969-3.0518-9.8506l1.2976-.3733h-3.3994c-1.3483,0-3.2027-1.3166-3.8827-2.4552-1.4952-2.5039-.7932-5.3807,1.5304-7.0416.2436-.1741.7818-.2794.7905-.5755l-6.2031-27.8886-9.2827-.0735c-.7828-.1852-1.0867-.5985-1.4475-1.2605v-.9219ZM57.4668,16.4913H18.2871l4.778,20.7498,28.5132-.0195,5.8885-20.7303ZM26.1995,51.5614c-1.6004-1.6004-4.058.8571-2.4575,2.4575s4.058-.8571,2.4575-2.4575ZM50.6291,51.5614c-1.6004-1.6004-4.058.8571-2.4575,2.4575s4.058-.8571,2.4575-2.4575Z"/></svg>