<?xml version="1.0" encoding="UTF-8"?><svg id="Capa_2" xmlns="http://www.w3.org/2000/svg" width="64" height="64" viewBox="0 0 64 64"><defs><style>.cls-1{fill:#fff;}</style></defs><path class="cls-1" d="M47.4672,61.5h-30.9864c-9.6311-1.3279-9.9255-9.5412-8.4879-17.4152,1.1767-6.4451,4.6794-13.2193,12.2255-13.1141,1.5293.0213,3.9656,2.1468,5.4003,2.9031,4.2166,2.2228,8.8519,2.1267,13.0139-.1573,1.4062-.7717,3.624-2.746,5.2011-2.7459,10.4669.0006,13.3436,13.2146,12.7321,21.4854-.3665,4.9559-4.1746,8.6252-9.0986,9.044ZM19.9151,34.4538c-5.6656.2248-7.7614,5.7724-8.5817,10.5526-.4049,2.3599-.8294,6.4873-.1836,8.7504.771,2.7019,3.2741,4.1071,5.9598,4.2922h29.7287c6.2979-.5809,6.6096-5.2114,6.1569-10.4284-.4649-5.3572-2.4265-13.0016-9.0268-13.1564-2.0041,1.1195-3.7154,2.4756-5.8864,3.3093-6.5553,2.5175-12.5058.7602-17.9245-3.2866l-.2424-.0332Z"/><path class="cls-1" d="M41.6673,26.7872c-8.6443,8.6443-23.5834,2.9338-24.2698-9.2277-.7205-12.7648,14.6099-19.9799,23.9662-11.18,5.8149,5.4691,5.9547,14.7567.3036,20.4077ZM30.511,6.0124c-7.4811.6672-12.0048,9.0884-8.4455,15.7487,3.5508,6.6445,12.7286,7.7271,17.6869,2.0168,6.378-7.3455.4576-18.6305-9.2413-17.7655Z"/></svg>